# xmcd CD database file
#
# Track frame offsets:
#	150
#	14487
#	25590
#	36895
#	47121
#	60038
#	76524
#	96186
#	112915
#	132684
#	154780
#	169814
#	198047
#	232663
#	244818
#	259657
#	271875
#	278922
#	291540
#
# Disc length: 4090 seconds
#
# Revision: 0
# Processed by: cddbd v1.5.2PL0 Copyright (c) Steve Scherf et al.
# Submitted via: CDex 1.51
#
DISCID=f50ff813
DTITLE=Jimmy Rushing - Anthology 1937-1955 - Disc 2
DYEAR=2007
DGENRE=Jazz
TTITLE0=Ain't It Lonesome?
TTITLE1=Hi-Ho Silvester
TTITLE2=In The Moonlight
TTITLE3=She's Mine, She's Yours
TTITLE4=Where Were You?
TTITLE5=Goin' To Chicago
TTITLE6=I Want A Little Girl
TTITLE7=Boogie Woogie
TTITLE8=How You Want Your Lovin' Done
TTITLE9=How Long, How Long Blues
TTITLE10=It's Hard to Laugh a Smile
TTITLE11=Every Day I Have The Blues
TTITLE12=Evenin'
TTITLE13=Take Me Back, Baby
TTITLE14=Rock and Roll
TTITLE15=Gee Baby, Ain't I Good to You
TTITLE16=Pretty Little Baby
TTITLE17=If I Could Be With You
TTITLE18=After You've Gone
EXTD=YEAR: 2007
EXTT0=
EXTT1=
EXTT2=
EXTT3=
EXTT4=
EXTT5=
EXTT6=
EXTT7=
EXTT8=
EXTT9=
EXTT10=
EXTT11=
EXTT12=
EXTT13=
EXTT14=
EXTT15=
EXTT16=
EXTT17=
EXTT18=
PLAYORDER=
